<svg width="42" height="42" viewBox="0 0 42 42" fill="none" xmlns="http://www.w3.org/2000/svg">
<g id="637debb22ccaf678d8afa763_ico_soc-inst.svg">
<path id="Vector" d="M29.9641 10.029C29.5658 10.029 29.1764 10.1472 28.845 10.3685C28.5138 10.5898 28.2557 10.9044 28.1031 11.2725C27.9507 11.6406 27.9109 12.0456 27.9886 12.4363C28.0663 12.827 28.258 13.186 28.5399 13.4677C28.8215 13.7494 29.1804 13.9412 29.5712 14.0189C29.9619 14.0966 30.3668 14.0567 30.7349 13.9043C31.103 13.7518 31.4176 13.4937 31.639 13.1624C31.8602 12.8312 31.9784 12.4417 31.9784 12.0433C31.9784 11.5091 31.7662 10.9968 31.3884 10.619C31.0107 10.2413 30.4984 10.029 29.9641 10.029ZM37.6856 14.0912C37.653 12.6985 37.3921 11.3205 36.9134 10.0123C36.4866 8.89287 35.8223 7.87927 34.9663 7.04119C34.135 6.18081 33.1192 5.52071 31.9952 5.11083C30.6904 4.6176 29.3108 4.35079 27.9163 4.32191C26.137 4.22119 25.5663 4.22119 21.0006 4.22119C16.4348 4.22119 15.8641 4.22119 14.0848 4.32191C12.6902 4.35079 11.3107 4.6176 10.0059 5.11083C8.88409 5.52485 7.86898 6.18438 7.03484 7.04119C6.17446 7.87239 5.51436 8.88836 5.10449 10.0123C4.61126 11.3171 4.34445 12.6966 4.31556 14.0912C4.21484 15.8705 4.21484 16.4412 4.21484 21.0069C4.21484 25.5726 4.21484 26.1433 4.31556 27.9226C4.34445 29.3172 4.61126 30.6968 5.10449 32.0015C5.51436 33.1255 6.17446 34.1414 7.03484 34.9726C7.86898 35.8294 8.88409 36.489 10.0059 36.903C11.3107 37.3961 12.6902 37.663 14.0848 37.6919C15.8641 37.7926 16.4348 37.7926 21.0006 37.7926C25.5663 37.7926 26.137 37.7926 27.9163 37.6919C29.3108 37.663 30.6904 37.3961 31.9952 36.903C33.1192 36.4931 34.135 35.8331 34.9663 34.9726C35.826 34.1377 36.4909 33.1232 36.9134 32.0015C37.3921 30.6933 37.653 29.3153 37.6856 27.9226C37.6856 26.1433 37.7863 25.5726 37.7863 21.0069C37.7863 16.4412 37.7863 15.8705 37.6856 14.0912ZM34.6641 27.7212C34.6519 28.7867 34.459 29.8424 34.0934 30.8433C33.8253 31.5739 33.395 32.2339 32.8345 32.7737C32.29 33.3285 31.6313 33.758 30.9041 34.0326C29.9032 34.3982 28.8475 34.5911 27.782 34.6033C26.1034 34.6873 25.4823 34.704 21.0677 34.704C16.6531 34.704 16.032 34.7041 14.3534 34.6033C13.2471 34.624 12.1454 34.4538 11.097 34.0998C10.4017 33.8112 9.7732 33.3827 9.25056 32.8408C8.69342 32.3015 8.26833 31.641 8.00842 30.9105C7.59861 29.8953 7.3713 28.8155 7.33699 27.7212C7.33699 26.0426 7.23627 25.4215 7.23627 21.0069C7.23627 16.5923 7.23627 15.9712 7.33699 14.2926C7.34451 13.2033 7.54337 12.1238 7.92449 11.1033C8.22 10.3948 8.67358 9.76326 9.25056 9.25691C9.76052 8.67976 10.3908 8.22139 11.097 7.91405C12.1202 7.54483 13.1986 7.35186 14.2863 7.34333C15.9648 7.34333 16.5859 7.24262 21.0006 7.24262C25.4152 7.24262 26.0363 7.24262 27.7148 7.34333C28.7804 7.35555 29.8361 7.54854 30.837 7.91405C31.5997 8.19714 32.2844 8.6574 32.8345 9.25691C33.3846 9.77253 33.8144 10.4029 34.0934 11.1033C34.4666 12.1255 34.6596 13.2045 34.6641 14.2926C34.7481 15.9712 34.7648 16.5923 34.7648 21.0069C34.7648 25.4215 34.7481 26.0426 34.6641 27.7212ZM21.0006 12.3958C19.2982 12.3992 17.635 12.907 16.2211 13.8552C14.8072 14.8034 13.7061 16.1495 13.0569 17.7233C12.4078 19.2969 12.2396 21.0279 12.5738 22.6971C12.9079 24.3664 13.7294 25.8991 14.9343 27.1018C16.1393 28.3043 17.6736 29.1228 19.3436 29.4536C21.0135 29.7847 22.7441 29.6131 24.3166 28.9608C25.8891 28.3087 27.2329 27.2049 28.1783 25.7892C29.1238 24.3734 29.6284 22.7093 29.6284 21.0069C29.6306 19.874 29.4089 18.7519 28.9758 17.7052C28.5429 16.6582 27.9072 15.7073 27.1054 14.9071C26.3035 14.1068 25.3512 13.4729 24.3037 13.042C23.2559 12.611 22.1334 12.3914 21.0006 12.3958ZM21.0006 26.5965C19.8951 26.5965 18.8144 26.2687 17.8952 25.6545C16.9759 25.0403 16.2595 24.1673 15.8364 23.1459C15.4133 22.1247 15.3026 21.0007 15.5183 19.9163C15.734 18.8321 16.2664 17.8361 17.0481 17.0544C17.8297 16.2727 18.8258 15.7403 19.91 15.5247C20.9943 15.309 22.1183 15.4197 23.1396 15.8427C24.161 16.2658 25.034 16.9823 25.6482 17.9015C26.2624 18.8207 26.5902 19.9014 26.5902 21.0069C26.5902 21.7409 26.4457 22.4678 26.1647 23.1459C25.8839 23.8242 25.4721 24.4403 24.9531 24.9594C24.4339 25.4785 23.8179 25.8902 23.1396 26.171C22.4614 26.452 21.7346 26.5965 21.0006 26.5965Z" fill="#FFD12E"/>
</g>
</svg>
