<svg width="48" height="47" viewBox="0 0 48 47" fill="none" xmlns="http://www.w3.org/2000/svg">
<g id="telegram" clip-path="url(#clip0_501_916)">
<g id="Group">
<path id="Vector" fill-rule="evenodd" clip-rule="evenodd" d="M15.3462 28.4881L5.67055 24.3116C4.6544 23.872 4.00845 22.8577 4.04123 21.751C4.07594 20.6442 4.77974 19.6704 5.82096 19.2944C12.8839 16.7377 34.2463 9.00175 40.4358 6.75926C41.3729 6.42183 42.4199 6.62622 43.1604 7.29145C43.9008 7.9586 44.2132 8.97861 43.976 9.94656C42.5993 15.5152 38.3419 32.7494 37.0423 38.0095C36.8167 38.9254 36.1283 39.6561 35.2298 39.9377C34.3293 40.2211 33.3478 40.0129 32.6402 39.39L26.0747 33.6228L20.936 38.5494C20.1975 39.257 19.1255 39.4865 18.1614 39.1452C17.1992 38.802 16.5128 37.9458 16.3875 36.9316L15.3462 28.4881ZM33.9764 35.9463L40.2585 10.5154L8.83282 21.8956L17.1279 25.4781C18.0072 25.858 18.6203 26.6756 18.7379 27.6262L19.6442 34.9803L23.4408 31.3418L23.1052 31.0525C22.5249 30.557 22.1836 29.8397 22.1624 29.0781C22.1393 28.3164 22.442 27.5818 22.9915 27.0535C25.0527 25.0771 30.5519 19.8073 30.5519 19.8073C31.2441 19.144 32.3432 19.1672 33.0065 19.8594C33.6679 20.5497 33.6447 21.6488 32.9545 22.3121L26.0091 28.9701L27.1525 29.9496L33.9764 35.9463Z" fill="#FFD12E"/>
</g>
</g>
<defs>
<clipPath id="clip0_501_916">
<rect width="46.2766" height="46.2766" fill="white" transform="translate(0.90918 0.190186)"/>
</clipPath>
</defs>
</svg>
