<svg width="329" height="91" viewBox="0 0 329 91" fill="none" xmlns="http://www.w3.org/2000/svg">
<path d="M15.2195 27.3257L0 19.7273V80.1613C0 86.1473 4.85266 91 10.8387 91H327.045C328.043 91 328.852 90.1912 328.852 89.1936V52.576C328.852 51.0574 328.533 49.5558 327.915 48.1685L322.355 35.6758C320.215 30.8689 314.932 28.2929 309.827 29.5672L308.292 29.9506C302.677 31.3522 296.951 28.0957 295.286 22.5533L292.802 14.2851C289.758 4.15383 275.49 3.93746 272.141 13.9717L269.179 22.843C267.182 28.8268 259.912 31.0989 254.862 27.3174C249.849 23.5628 242.631 25.7729 240.579 31.6911L228.591 66.2723C226.052 73.5977 215.95 74.258 212.478 67.3255C209.651 61.68 201.962 60.7871 197.917 65.6344L188.279 77.1823C184.314 81.9334 177.182 82.4058 172.625 78.2194L125.805 35.209C121.185 30.9645 113.937 31.5176 110.014 36.4139L89.6427 61.8402C84.1311 68.7195 73.1496 66.4925 70.7534 58.0096L56.7551 8.45269C53.9788 -1.37584 40.3926 -2.26112 36.3644 7.12406L30.021 21.9034C27.5633 27.6296 20.7948 30.1092 15.2195 27.3257Z" fill="url(#paint0_linear_54_344)"/>
<defs>
<linearGradient id="paint0_linear_54_344" x1="271.683" y1="-77" x2="268.5" y2="91" gradientUnits="userSpaceOnUse">
<stop stop-color="#5ED5A8"/>
<stop offset="1" stop-color="#1A223D"/>
</linearGradient>
</defs>
</svg>
