<svg width="129" height="129" viewBox="0 0 129 129" fill="none" xmlns="http://www.w3.org/2000/svg">
<g id="Bitcoin (BTC)">
<path id="Vector" d="M59.8807 117.974V104.47H55.4119V117.974H46.4745V104.47H24.2694L26.5038 91.162H31.3255C35.2759 91.162 37.537 87.3591 37.537 83.5339V43.8114C37.537 40.0889 35.3697 37.5373 31.4372 37.5373H24.1309V24.1311H46.4745V10.7249H55.4119V24.1311H59.8807V10.7249H68.8181V24.3679C88.1007 25.0204 95.7377 32.3267 97.9274 40.5671C100.519 50.3089 94.0977 58.4867 88.5743 60.4797C95.2819 62.1868 104.568 67.1426 104.568 78.578C104.568 94.1426 92.556 104.568 68.8181 104.568V117.974H59.8807ZM55.4119 68.7915V91.162C73.1483 91.162 85.2988 89.4862 85.2988 79.9187C85.2988 69.6585 72.1697 68.7915 55.4119 68.7915ZM55.4119 59.8809C65.2923 59.8809 80.3385 59.1838 80.3385 48.7091C80.3385 39.7716 71.0525 37.5373 55.4119 37.5373V59.8809Z" fill="#FFD12E"/>
</g>
</svg>
