<svg width="84" height="84" viewBox="0 0 84 84" fill="none" xmlns="http://www.w3.org/2000/svg">
<path d="M44.417 13.9648L44.417 34.9998L39.167 34.9998L39.167 13.9648C39.167 12.5298 40.357 11.3398 41.792 11.3398C43.227 11.3398 44.417 12.5298 44.417 13.9648Z" fill="#777777"/>
<path fill-rule="evenodd" clip-rule="evenodd" d="M73.99 34.649C75.67 34.649 77 35.9791 77 37.6591C77 58.2391 62.58 72.6591 41.965 72.6591C21.35 72.6591 6.96499 58.2741 6.965 37.659C6.965 35.979 8.32999 34.649 9.975 34.649L39.1644 34.649L39.1644 47.4596L33.6694 41.9996C32.6544 40.9846 30.9745 40.9846 29.9595 41.9996C29.4345 42.5246 29.1894 43.1896 29.1894 43.8546C29.1894 44.5196 29.4345 45.1846 29.9595 45.7096L39.9344 55.6496C40.9494 56.6996 42.5945 56.6996 43.6095 55.6496L53.5845 45.7096C54.5995 44.6946 54.5995 43.0146 53.5845 41.9996C52.5695 40.9846 50.8894 40.9846 49.8745 41.9996L44.4144 47.4596L44.4144 34.649L73.99 34.649Z" fill="#FFD12E"/>
</svg>
