<svg width="84" height="84" viewBox="0 0 84 84" fill="none" xmlns="http://www.w3.org/2000/svg">
<g id="wallet">
<path id="Vector" d="M41.7912 7.73505L33.3562 27.37H24.9212C23.5212 27.37 22.1562 27.475 20.8262 27.755L24.3262 19.355L24.4662 19.04L24.6762 18.48C24.7812 18.235 24.8512 18.025 24.9562 17.85C29.0162 8.43505 33.5662 5.49505 41.7912 7.73505Z" fill="#777777"/>
<path id="Vector_2" d="M65.5549 28.3149L65.4849 28.2799C63.3849 27.6849 61.2499 27.3699 59.0799 27.3699H37.1699L45.0449 9.06495L45.1499 8.81995C45.6399 8.99495 46.1649 9.23995 46.6899 9.41495L54.4249 12.6699C58.7299 14.4549 61.7399 16.3099 63.5949 18.5499C63.9099 18.9699 64.1899 19.3549 64.4699 19.8099C64.7849 20.2999 65.0299 20.7899 65.1699 21.3149C65.3099 21.6299 65.4149 21.9099 65.4849 22.2249C66.0099 24.0099 66.0449 26.0399 65.5549 28.3149Z" fill="#777777"/>
<path id="Vector_3" d="M43.8184 61.81H44.6934C45.7434 61.81 46.6184 60.865 46.6184 59.71C46.6184 58.24 46.1984 58.03 45.2884 57.68L43.8184 57.155V61.81Z" fill="#FFD12E"/>
<path id="Vector_4" d="M64.0158 33.32C62.4408 32.865 60.7958 32.62 59.0808 32.62H24.9208C22.5408 32.62 20.3008 33.075 18.2008 33.985C12.1108 36.61 7.84082 42.665 7.84082 49.7V56.525C7.84082 57.365 7.91082 58.17 8.01582 59.01C8.78582 70.14 14.7358 76.09 25.8658 76.825C26.6708 76.93 27.4758 77 28.3508 77H55.6508C68.6008 77 75.4258 70.84 76.0908 58.59C76.1258 57.925 76.1608 57.225 76.1608 56.525V49.7C76.1608 41.965 71.0158 35.455 64.0158 33.32ZM46.4808 54.25C48.0908 54.81 50.2608 56 50.2608 59.71C50.2608 62.895 47.7758 65.45 44.6958 65.45H43.8208V66.22C43.8208 67.235 43.0158 68.04 42.0008 68.04C40.9858 68.04 40.1808 67.235 40.1808 66.22V65.45H39.8658C36.5058 65.45 33.7408 62.615 33.7408 59.115C33.7408 58.1 34.5458 57.295 35.5608 57.295C36.5758 57.295 37.3808 58.1 37.3808 59.115C37.3808 60.585 38.5008 61.81 39.8658 61.81H40.1808V55.895L37.5208 54.95C35.9108 54.39 33.7408 53.2 33.7408 49.49C33.7408 46.305 36.2258 43.75 39.3058 43.75H40.1808V42.98C40.1808 41.965 40.9858 41.16 42.0008 41.16C43.0158 41.16 43.8208 41.965 43.8208 42.98V43.75H44.1358C47.4958 43.75 50.2608 46.585 50.2608 50.085C50.2608 51.1 49.4558 51.905 48.4408 51.905C47.4258 51.905 46.6208 51.1 46.6208 50.085C46.6208 48.615 45.5008 47.39 44.1358 47.39H43.8208V53.305L46.4808 54.25Z" fill="#FFD12E"/>
<path id="Vector_5" d="M37.3789 49.49C37.3789 50.96 37.7989 51.17 38.7089 51.52L40.1789 52.045V47.39H39.3039C38.2189 47.39 37.3789 48.335 37.3789 49.49Z" fill="#FFD12E"/>
</g>
</svg>
