<svg width="287" height="108" viewBox="0 0 287 108" fill="none" xmlns="http://www.w3.org/2000/svg">
<path d="M35.8807 107.974V94.4698H31.4119V107.974H22.4745V94.4698H0.269389L2.50375 81.1619H7.32551C11.2759 81.1619 13.537 77.359 13.537 73.5338V33.8113C13.537 30.0889 11.3697 27.5372 7.43723 27.5372H0.130859V14.131H22.4745V0.724854H31.4119V14.131H35.8807V0.724854H44.8181V14.3679C64.1007 15.0203 71.7377 22.3267 73.9274 30.567C76.5193 40.3088 70.0977 48.4866 64.5743 50.4796C71.2819 52.1867 80.5679 57.1425 80.5679 68.578C80.5679 84.1426 68.556 94.5681 44.8181 94.5681V107.974H35.8807ZM31.4119 58.7915V81.1619C49.1483 81.1619 61.2988 79.4861 61.2988 69.9186C61.2988 59.6584 48.1697 58.7915 31.4119 58.7915ZM31.4119 49.8808C41.2923 49.8808 56.3385 49.1837 56.3385 38.709C56.3385 29.7716 47.0525 27.5372 31.4119 27.5372V49.8808Z" fill="#FFD12E"/>
<path d="M109.245 47.9118H97.5333V39.8037H130.223V47.9118H118.64V82.6606H109.245V47.9118Z" fill="white"/>
<path d="M136.424 39.8037C137.711 39.7608 140.113 39.7394 143.631 39.7394C147.191 39.7394 149.615 39.7608 150.902 39.8037C155.793 39.9753 159.439 41.1765 161.842 43.4073C164.244 45.5952 165.445 48.5553 165.445 52.2876C165.445 55.4622 164.63 58.1648 163 60.3956C161.413 62.5835 159.182 64.0207 156.308 64.7071C157.209 65.4364 158.131 66.4445 159.075 67.7315C160.018 68.9756 161.327 70.9275 163 73.5873C164.759 76.3758 166.539 79.4002 168.341 82.6606H157.53L150.259 69.1472C149.487 67.7315 148.779 66.8521 148.135 66.5089C147.535 66.1227 146.612 65.9297 145.368 65.9297V82.6606H136.424V39.8037ZM149.358 58.7869C151.546 58.7869 153.262 58.2292 154.506 57.1138C155.793 55.9984 156.436 54.4969 156.436 52.6093C156.436 50.8933 155.879 49.5849 154.763 48.684C153.648 47.7831 152.018 47.3326 149.873 47.3326H145.368V58.7869H149.358Z" fill="white"/>
<path d="M184.336 39.8037H195.533L211.428 82.6606H201.775L198.3 72.8795H181.441L178.159 82.6606H168.635L184.336 39.8037ZM195.533 64.9001L189.742 48.4909L184.143 64.9001H195.533Z" fill="white"/>
<path d="M223.121 82.725C220.075 82.725 217.801 82.7035 216.3 82.6606V39.8037C218.144 39.7608 220.868 39.7394 224.472 39.7394C228.118 39.7394 230.843 39.7608 232.644 39.8037C236.849 39.8466 240.495 40.7046 243.584 42.3777C246.716 44.0079 249.118 46.346 250.791 49.3918C252.507 52.4377 253.365 55.9984 253.365 60.0739C253.365 64.5355 252.378 68.4608 250.405 71.8499C248.474 75.239 245.729 77.8773 242.168 79.7649C238.65 81.6525 234.553 82.6177 229.877 82.6606C228.376 82.7035 226.124 82.725 223.121 82.725ZM229.813 74.5526C234.146 74.5526 237.556 73.287 240.045 70.7559C242.533 68.2248 243.777 64.75 243.777 60.3313C243.777 56.3416 242.704 53.2743 240.559 51.1293C238.457 48.9843 235.411 47.9118 231.422 47.9118H225.63V74.5526H229.813Z" fill="white"/>
<path d="M260.416 39.8037H286.477V47.9118H269.618V56.4703H283.582V64.321H269.618V74.5526H286.477V82.6606H260.416V39.8037Z" fill="white"/>
</svg>
