<svg width="183" height="175" viewBox="0 0 183 175" fill="none" xmlns="http://www.w3.org/2000/svg">
<g filter="url(#filter0_d_608_3301)">
<path d="M94.416 41.9647L94.416 62.9998L89.166 62.9998L89.166 41.9647C89.166 40.5297 90.356 39.3397 91.791 39.3397C93.226 39.3397 94.416 40.5297 94.416 41.9647Z" fill="#777777"/>
<path fill-rule="evenodd" clip-rule="evenodd" d="M123.99 62.649C125.67 62.649 127 63.979 127 65.659C127 86.239 112.58 100.659 91.965 100.659C71.35 100.659 56.965 86.274 56.965 65.659C56.965 63.979 58.33 62.649 59.975 62.649L89.1644 62.649L89.1644 75.4595L83.6694 69.9995C82.6544 68.9845 80.9745 68.9845 79.9595 69.9995C79.4345 70.5245 79.1894 71.1895 79.1894 71.8545C79.1894 72.5195 79.4345 73.1845 79.9595 73.7095L89.9344 83.6495C90.9494 84.6995 92.5945 84.6995 93.6095 83.6495L103.584 73.7095C104.599 72.6945 104.599 71.0145 103.584 69.9995C102.569 68.9845 100.889 68.9845 99.8745 69.9995L94.4144 75.4595L94.4144 62.649L123.99 62.649Z" fill="#FFD12E"/>
</g>
<defs>
<filter id="filter0_d_608_3301" x="0.964844" y="0.839722" width="182.035" height="173.319" filterUnits="userSpaceOnUse" color-interpolation-filters="sRGB">
<feFlood flood-opacity="0" result="BackgroundImageFix"/>
<feColorMatrix in="SourceAlpha" type="matrix" values="0 0 0 0 0 0 0 0 0 0 0 0 0 0 0 0 0 0 127 0" result="hardAlpha"/>
<feOffset dy="17.5"/>
<feGaussianBlur stdDeviation="28"/>
<feComposite in2="hardAlpha" operator="out"/>
<feColorMatrix type="matrix" values="0 0 0 0 0.368627 0 0 0 0 0.835294 0 0 0 0 0.658824 0 0 0 0.25 0"/>
<feBlend mode="normal" in2="BackgroundImageFix" result="effect1_dropShadow_608_3301"/>
<feBlend mode="normal" in="SourceGraphic" in2="effect1_dropShadow_608_3301" result="shape"/>
</filter>
</defs>
</svg>
