<svg width="84" height="84" viewBox="0 0 84 84" fill="none" xmlns="http://www.w3.org/2000/svg">
<g id="setting-5">
<path id="Vector" opacity="0.4" d="M64.7828 6.29999C63.0328 6.29999 61.6328 7.69999 61.6328 9.44999V25.725C61.6328 27.475 63.0328 28.875 64.7828 28.875C66.5328 28.875 67.9328 27.475 67.9328 25.725V9.44999C67.9328 7.69999 66.5328 6.29999 64.7828 6.29999Z" fill="#747E87"/>
<path id="Vector_2" d="M41.9986 55.125C40.2486 55.125 38.8486 56.525 38.8486 58.275V74.55C38.8486 76.3 40.2486 77.7 41.9986 77.7C43.7486 77.7 45.1486 76.3 45.1486 74.55V58.275C45.1486 56.56 43.7486 55.125 41.9986 55.125Z" fill="#FFD12E"/>
<path id="Vector_3" opacity="0.4" d="M19.2154 6.29999C17.4654 6.29999 16.0654 7.69999 16.0654 9.44999V25.725C16.0654 27.475 17.4654 28.875 19.2154 28.875C20.9654 28.875 22.3654 27.475 22.3654 25.725V9.44999C22.3654 7.69999 20.9304 6.29999 19.2154 6.29999Z" fill="#747E87"/>
<path id="Vector_4" opacity="0.4" d="M25.7276 35.5954H12.7076C10.9576 35.5954 9.55762 36.9954 9.55762 38.7454C9.55762 40.4954 10.9576 41.8954 12.7076 41.8954H16.0676V74.5504C16.0676 76.3004 17.4676 77.7004 19.2176 77.7004C20.9676 77.7004 22.3676 76.3004 22.3676 74.5504V41.8954H25.7276C27.4776 41.8954 28.8776 40.4954 28.8776 38.7454C28.8776 36.9954 27.4426 35.5954 25.7276 35.5954Z" fill="#747E87"/>
<path id="Vector_5" opacity="0.4" d="M71.295 35.5954H58.275C56.525 35.5954 55.125 36.9954 55.125 38.7454C55.125 40.4954 56.525 41.8954 58.275 41.8954H61.635V74.5504C61.635 76.3004 63.035 77.7004 64.785 77.7004C66.535 77.7004 67.935 76.3004 67.935 74.5504V41.8954H71.295C73.045 41.8954 74.445 40.4954 74.445 38.7454C74.445 36.9954 73.045 35.5954 71.295 35.5954Z" fill="#747E87"/>
<path id="Vector_6" d="M48.5108 42.105H45.1508V9.44999C45.1508 7.69999 43.7508 6.29999 42.0008 6.29999C40.2508 6.29999 38.8508 7.69999 38.8508 9.44999V42.105H35.4908C33.7408 42.105 32.3408 43.505 32.3408 45.255C32.3408 47.005 33.7408 48.405 35.4908 48.405H48.5108C50.2608 48.405 51.6608 47.005 51.6608 45.255C51.6608 43.505 50.2608 42.105 48.5108 42.105Z" fill="#FFD12E"/>
</g>
</svg>
