<svg width="102" height="102" viewBox="0 0 102 102" fill="none" xmlns="http://www.w3.org/2000/svg">
<g id="wallet" filter="url(#filter0_d_62_747)">
<path id="Vector" d="M50.7912 11.735L42.3562 31.37H33.9212C32.5212 31.37 31.1562 31.475 29.8262 31.755L33.3262 23.355L33.4662 23.04L33.6762 22.48C33.7812 22.235 33.8512 22.025 33.9562 21.85C38.0162 12.435 42.5662 9.49505 50.7912 11.735Z" fill="#777777"/>
<path id="Vector_2" d="M74.5549 32.3149L74.4849 32.2799C72.3849 31.6849 70.2499 31.3699 68.0799 31.3699H46.1699L54.0449 13.0649L54.1499 12.8199C54.6399 12.9949 55.1649 13.2399 55.6899 13.4149L63.4249 16.6699C67.7299 18.4549 70.7399 20.3099 72.5949 22.5499C72.9099 22.9699 73.1899 23.3549 73.4699 23.8099C73.7849 24.2999 74.0299 24.7899 74.1699 25.3149C74.3099 25.6299 74.4149 25.9099 74.4849 26.2249C75.0099 28.0099 75.0449 30.0399 74.5549 32.3149Z" fill="#777777"/>
<path id="Vector_3" d="M52.8184 65.81H53.6934C54.7434 65.81 55.6184 64.865 55.6184 63.71C55.6184 62.24 55.1984 62.03 54.2884 61.68L52.8184 61.155V65.81Z" fill="#FFD12E"/>
<path id="Vector_4" d="M73.0158 37.32C71.4408 36.865 69.7958 36.62 68.0808 36.62H33.9208C31.5408 36.62 29.3008 37.075 27.2008 37.985C21.1108 40.61 16.8408 46.665 16.8408 53.7V60.525C16.8408 61.365 16.9108 62.17 17.0158 63.01C17.7858 74.14 23.7358 80.09 34.8658 80.825C35.6708 80.93 36.4758 81 37.3508 81H64.6508C77.6008 81 84.4258 74.84 85.0908 62.59C85.1258 61.925 85.1608 61.225 85.1608 60.525V53.7C85.1608 45.965 80.0158 39.455 73.0158 37.32ZM55.4808 58.25C57.0908 58.81 59.2608 60 59.2608 63.71C59.2608 66.895 56.7758 69.45 53.6958 69.45H52.8208V70.22C52.8208 71.235 52.0158 72.04 51.0008 72.04C49.9858 72.04 49.1808 71.235 49.1808 70.22V69.45H48.8658C45.5058 69.45 42.7408 66.615 42.7408 63.115C42.7408 62.1 43.5458 61.295 44.5608 61.295C45.5758 61.295 46.3808 62.1 46.3808 63.115C46.3808 64.585 47.5008 65.81 48.8658 65.81H49.1808V59.895L46.5208 58.95C44.9108 58.39 42.7408 57.2 42.7408 53.49C42.7408 50.305 45.2258 47.75 48.3058 47.75H49.1808V46.98C49.1808 45.965 49.9858 45.16 51.0008 45.16C52.0158 45.16 52.8208 45.965 52.8208 46.98V47.75H53.1358C56.4958 47.75 59.2608 50.585 59.2608 54.085C59.2608 55.1 58.4558 55.905 57.4408 55.905C56.4258 55.905 55.6208 55.1 55.6208 54.085C55.6208 52.615 54.5008 51.39 53.1358 51.39H52.8208V57.305L55.4808 58.25Z" fill="#FFD12E"/>
<path id="Vector_5" d="M46.3789 53.49C46.3789 54.96 46.7989 55.17 47.7089 55.52L49.1789 56.045V51.39H48.3039C47.2189 51.39 46.3789 52.335 46.3789 53.49Z" fill="#FFD12E"/>
</g>
<defs>
<filter id="filter0_d_62_747" x="0.84082" y="0.0211487" width="100.32" height="101.979" filterUnits="userSpaceOnUse" color-interpolation-filters="sRGB">
<feFlood flood-opacity="0" result="BackgroundImageFix"/>
<feColorMatrix in="SourceAlpha" type="matrix" values="0 0 0 0 0 0 0 0 0 0 0 0 0 0 0 0 0 0 127 0" result="hardAlpha"/>
<feOffset dy="5"/>
<feGaussianBlur stdDeviation="8"/>
<feComposite in2="hardAlpha" operator="out"/>
<feColorMatrix type="matrix" values="0 0 0 0 0.368627 0 0 0 0 0.835294 0 0 0 0 0.658824 0 0 0 0.25 0"/>
<feBlend mode="normal" in2="BackgroundImageFix" result="effect1_dropShadow_62_747"/>
<feBlend mode="normal" in="SourceGraphic" in2="effect1_dropShadow_62_747" result="shape"/>
</filter>
</defs>
</svg>
