<svg width="44" height="44" viewBox="0 0 44 44" fill="none" xmlns="http://www.w3.org/2000/svg">
<g id="enter 2">
<path id="Vector" fill-rule="evenodd" clip-rule="evenodd" d="M17.0769 6C16.3972 6 15.8462 6.55104 15.8462 7.23077C15.8462 7.9105 16.3972 8.46154 17.0769 8.46154H35.5385V35.5385H17.0769C16.3972 35.5385 15.8462 36.0896 15.8462 36.7692C15.8462 37.4489 16.3972 38 17.0769 38H35.5385C36.898 38 38 36.898 38 35.5385V8.46154C38 7.10208 36.898 6 35.5385 6H17.0769ZM22.2549 15.5913C21.7743 15.1106 20.995 15.1106 20.5143 15.5913C20.0337 16.0719 20.0337 16.8512 20.5143 17.3318L23.9517 20.7692H7.23077C6.55104 20.7692 6 21.3203 6 22C6 22.6797 6.55104 23.2308 7.23077 23.2308H23.9517L20.5143 26.6682C20.0337 27.1488 20.0337 27.9281 20.5143 28.4089C20.995 28.8894 21.7743 28.8894 22.2549 28.4089L27.7934 22.8703C28.274 22.3896 28.274 21.6104 27.7934 21.1297L22.2549 15.5913Z" fill="white"/>
</g>
</svg>
